<svg xmlns="http://www.w3.org/2000/svg" xmlns:xlink="http://www.w3.org/1999/xlink" zoomAndPan="magnify" preserveAspectRatio="xMidYMid meet" version="1.0" viewBox="21.05 163.62 342.43 49.28"><defs><g/><clipPath id="dd5602094b"><path d="M 104 165 L 152 165 L 152 212 L 104 212 Z M 104 165 " clip-rule="nonzero"/></clipPath><clipPath id="fc91f5b386"><path d="M 102.320312 166.484375 L 149.617188 163.621094 L 152.410156 209.832031 L 105.117188 212.695312 Z M 102.320312 166.484375 " clip-rule="nonzero"/></clipPath><clipPath id="a08a5ed303"><path d="M 125.953125 165.054688 L 132.933594 175.875 L 145.496094 173.007812 L 141.316406 185.207031 L 151.378906 193.296875 L 139.257812 197.632812 L 139.242188 210.460938 L 128.292969 203.742188 L 118.234375 211.730469 L 116.671875 199 L 104.113281 196.15625 L 113.128906 186.914062 L 107.507812 175.308594 L 120.328125 176.640625 Z M 125.953125 165.054688 " clip-rule="nonzero"/></clipPath><clipPath id="ca4e032956"><path d="M 0 0 L 47.441406 0 L 47.441406 46.921875 L 0 46.921875 Z M 0 0 " clip-rule="nonzero"/></clipPath><clipPath id="ae5f0241df"><path d="M -1.679688 1.484375 L 45.617188 -1.378906 L 48.410156 44.832031 L 1.117188 47.695312 Z M -1.679688 1.484375 " clip-rule="nonzero"/></clipPath><clipPath id="6849bb7f13"><path d="M 21.953125 0.0546875 L 28.933594 10.875 L 41.496094 8.007812 L 37.316406 20.207031 L 47.378906 28.296875 L 35.257812 32.632812 L 35.242188 45.460938 L 24.292969 38.742188 L 14.234375 46.730469 L 12.671875 34 L 0.113281 31.15625 L 9.128906 21.914062 L 3.507812 10.308594 L 16.328125 11.640625 Z M 21.953125 0.0546875 " clip-rule="nonzero"/></clipPath><clipPath id="fc1e8903f0"><rect x="0" width="48" y="0" height="47"/></clipPath><clipPath id="8eebbe1fcb"><path d="M 111 172 L 144 172 L 144 205 L 111 205 Z M 111 172 " clip-rule="nonzero"/></clipPath><clipPath id="cc4ef20069"><path d="M 110.097656 173.246094 L 142.699219 171.273438 L 144.625 203.125 L 112.027344 205.097656 Z M 110.097656 173.246094 " clip-rule="nonzero"/></clipPath><clipPath id="916e8643d2"><path d="M 126.386719 172.261719 L 131.199219 179.722656 L 139.859375 177.746094 L 136.976562 186.152344 L 143.914062 191.730469 L 135.558594 194.71875 L 135.546875 203.558594 L 128 198.929688 L 121.070312 204.433594 L 119.992188 195.660156 L 111.335938 193.699219 L 117.550781 187.328125 L 113.675781 179.328125 L 122.511719 180.246094 Z M 126.386719 172.261719 " clip-rule="nonzero"/></clipPath><clipPath id="b98dacdccc"><path d="M 0.121094 0.078125 L 33 0.078125 L 33 32.480469 L 0.121094 32.480469 Z M 0.121094 0.078125 " clip-rule="nonzero"/></clipPath><clipPath id="8a41954e05"><path d="M -0.902344 1.246094 L 31.699219 -0.726562 L 33.625 31.125 L 1.027344 33.097656 Z M -0.902344 1.246094 " clip-rule="nonzero"/></clipPath><clipPath id="29c97a9299"><path d="M 15.386719 0.261719 L 20.199219 7.722656 L 28.859375 5.746094 L 25.976562 14.152344 L 32.914062 19.730469 L 24.558594 22.71875 L 24.546875 31.558594 L 17 26.929688 L 10.070312 32.433594 L 8.992188 23.660156 L 0.335938 21.699219 L 6.550781 15.328125 L 2.675781 7.328125 L 11.511719 8.246094 Z M 15.386719 0.261719 " clip-rule="nonzero"/></clipPath><clipPath id="606755bd72"><rect x="0" width="33" y="0" height="33"/></clipPath></defs><g fill="#000000" fill-opacity="1"><g transform="translate(19.48802, 206.624986)"><g><path d="M 30.390625 -34.4375 L 30.390625 -27.09375 L 11.703125 -7.34375 L 30.390625 -7.34375 L 30.390625 0.046875 L 1.578125 0 L 1.578125 -7.34375 L 20.265625 -27.09375 L 1.578125 -27.09375 L 1.578125 -34.4375 Z M 30.390625 -34.4375 "/></g></g></g><g fill="#000000" fill-opacity="1"><g transform="translate(51.453414, 206.624986)"><g><path d="M 9.765625 -13.390625 L 9.765625 -7.34375 L 25.40625 -7.34375 L 25.40625 0 L 1.578125 0 L 1.578125 -34.125 L 25.40625 -34.125 L 25.40625 -26.78125 L 9.765625 -26.78125 L 9.765625 -20.734375 L 23.046875 -20.734375 L 23.046875 -13.390625 Z M 9.765625 -13.390625 "/></g></g></g><g fill="#000000" fill-opacity="1"><g transform="translate(78.432413, 206.624986)"><g><path d="M 30.078125 -22.46875 C 30.078125 -20.257812 29.519531 -18.210938 28.40625 -16.328125 C 27.039062 -14.085938 25.113281 -12.53125 22.625 -11.65625 L 29.984375 0 L 20.796875 0 L 13.65625 -10.875 L 9.765625 -10.875 L 9.765625 0 L 1.578125 0 L 1.578125 -34.125 L 17.90625 -34.125 C 21.789062 -34.125 24.867188 -32.847656 27.140625 -30.296875 C 29.097656 -28.054688 30.078125 -25.445312 30.078125 -22.46875 Z M 9.765625 -26.78125 L 9.765625 -18.21875 L 17.84375 -18.21875 C 18.96875 -18.21875 19.863281 -18.375 20.53125 -18.6875 C 21.09375 -19 21.492188 -19.296875 21.734375 -19.578125 C 22.085938 -20.003906 22.347656 -20.492188 22.515625 -21.046875 C 22.660156 -21.535156 22.734375 -22.007812 22.734375 -22.46875 C 22.734375 -22.957031 22.660156 -23.445312 22.515625 -23.9375 C 22.304688 -24.5 22.007812 -24.988281 21.625 -25.40625 C 20.851562 -26.320312 19.613281 -26.78125 17.90625 -26.78125 Z M 9.765625 -26.78125 "/></g></g></g><g fill="#000000" fill-opacity="1"><g transform="translate(110.08567, 206.624986)"><g/></g></g><g fill="#000000" fill-opacity="1"><g transform="translate(123.732634, 206.624986)"><g/></g></g><g fill="#000000" fill-opacity="1"><g transform="translate(137.379598, 206.624986)"><g/></g></g><g fill="#000000" fill-opacity="1"><g transform="translate(151.026562, 206.624986)"><g/></g></g><g fill="#000000" fill-opacity="1"><g transform="translate(164.683323, 206.624986)"><g><path d="M 30.078125 -22.46875 C 30.078125 -20.257812 29.519531 -18.210938 28.40625 -16.328125 C 27.039062 -14.085938 25.113281 -12.53125 22.625 -11.65625 L 29.984375 0 L 20.796875 0 L 13.65625 -10.875 L 9.765625 -10.875 L 9.765625 0 L 1.578125 0 L 1.578125 -34.125 L 17.90625 -34.125 C 21.789062 -34.125 24.867188 -32.847656 27.140625 -30.296875 C 29.097656 -28.054688 30.078125 -25.445312 30.078125 -22.46875 Z M 9.765625 -26.78125 L 9.765625 -18.21875 L 17.84375 -18.21875 C 18.96875 -18.21875 19.863281 -18.375 20.53125 -18.6875 C 21.09375 -19 21.492188 -19.296875 21.734375 -19.578125 C 22.085938 -20.003906 22.347656 -20.492188 22.515625 -21.046875 C 22.660156 -21.535156 22.734375 -22.007812 22.734375 -22.46875 C 22.734375 -22.957031 22.660156 -23.445312 22.515625 -23.9375 C 22.304688 -24.5 22.007812 -24.988281 21.625 -25.40625 C 20.851562 -26.320312 19.613281 -26.78125 17.90625 -26.78125 Z M 9.765625 -26.78125 "/></g></g></g><g fill="#000000" fill-opacity="1"><g transform="translate(196.333788, 206.624986)"><g><path d="M 9.765625 -13.390625 L 9.765625 -7.34375 L 25.40625 -7.34375 L 25.40625 0 L 1.578125 0 L 1.578125 -34.125 L 25.40625 -34.125 L 25.40625 -26.78125 L 9.765625 -26.78125 L 9.765625 -20.734375 L 23.046875 -20.734375 L 23.046875 -13.390625 Z M 9.765625 -13.390625 "/></g></g></g><g fill="#000000" fill-opacity="1"><g transform="translate(223.312786, 206.624986)"><g><path d="M 27.765625 0 L 25.3125 -4.78125 L 12.4375 -4.78125 L 9.96875 0 L 0.53125 0 L 18.90625 -34.125 L 37.21875 0 Z M 22 -11.1875 L 18.90625 -17.171875 L 15.75 -11.1875 Z M 22 -11.1875 "/></g></g></g><g fill="#000000" fill-opacity="1"><g transform="translate(261.051896, 206.624986)"><g><path d="M 9.765625 -7.34375 L 26.203125 -7.34375 L 26.203125 0 L 1.578125 0 L 1.578125 -34.125 L 9.765625 -34.125 Z M 9.765625 -7.34375 "/></g></g></g><g fill="#000000" fill-opacity="1"><g transform="translate(287.873435, 206.624986)"><g><path d="M 0.78125 -34.125 L 8.984375 -34.125 L 8.984375 0 L 0.78125 0 Z M 0.78125 -34.125 "/></g></g></g><g fill="#000000" fill-opacity="1"><g transform="translate(297.636263, 206.624986)"><g><path d="M 27.515625 -25.9375 L 18.640625 -25.9375 L 18.640625 0 L 10.453125 0 L 10.453125 -25.9375 L 1.578125 -25.9375 L 1.578125 -34.125 L 27.515625 -34.125 Z M 27.515625 -25.9375 "/></g></g></g><g fill="#000000" fill-opacity="1"><g transform="translate(326.242405, 206.624986)"><g><path d="M 37.21875 -34.125 L 23.46875 -17.640625 L 23.46875 0 L 15.28125 0 L 15.28125 -17.640625 L 1.578125 -34.125 L 12.34375 -34.125 L 19.421875 -25.5625 L 26.453125 -34.125 Z M 37.21875 -34.125 "/></g></g></g><g clip-path="url(#dd5602094b)"><g clip-path="url(#fc91f5b386)"><g clip-path="url(#a08a5ed303)"><g transform="matrix(1, 0, 0, 1, 104, 165)"><g clip-path="url(#fc1e8903f0)"><g clip-path="url(#ca4e032956)"><g clip-path="url(#ae5f0241df)"><g clip-path="url(#6849bb7f13)"><path fill="#000000" d="M -1.679688 1.484375 L 45.617188 -1.378906 L 48.421875 45.011719 L 1.125 47.875 Z M -1.679688 1.484375 " fill-opacity="1" fill-rule="nonzero"/></g></g></g></g></g></g></g></g><g clip-path="url(#8eebbe1fcb)"><g clip-path="url(#cc4ef20069)"><g clip-path="url(#916e8643d2)"><g transform="matrix(1, 0, 0, 1, 111, 172)"><g clip-path="url(#606755bd72)"><g clip-path="url(#b98dacdccc)"><g clip-path="url(#8a41954e05)"><g clip-path="url(#29c97a9299)"><path fill="#8bff00" d="M -0.902344 1.246094 L 31.699219 -0.726562 L 33.632812 31.25 L 1.035156 33.222656 Z M -0.902344 1.246094 " fill-opacity="1" fill-rule="nonzero"/></g></g></g></g></g></g></g></g></svg>